# xmcd
#
# Track frame offsets:
#	150
#	15997
#	31009
#	49470
#	64629
#	83015
#	106457
#	124079
#	142367
#	158597
#	175329
#	203459
#
# Disc length: 3475 seconds
#
# Revision: 21
# Processed by: cddbd v1.5.2PL0 Copyright (c) Steve Scherf et al.
# Submitted via: EasyCDDAExtractor 15.3.0.1
#
DISCID=970d910c
DTITLE=Britney Spears - ...Baby One More Time
DYEAR=1999
DGENRE=Pop
TTITLE0=Baby One More Time
TTITLE1=(You Drive Me) Crazy
TTITLE2=Sometimes
TTITLE3=Soda Pop
TTITLE4=Born To Make You Happy
TTITLE5=From The Bottom Of My Broken Heart
TTITLE6=I Will Be There
TTITLE7=I Will Still Love You (Duet With Don Philip)
TTITLE8=Thinkin' About You
TTITLE9=E-Mail My Heart
TTITLE10=The Beat Goes On
TTITLE11=(Data)
EXTD=YEAR: 1999
EXTT0=
EXTT1=
EXTT2=
EXTT3=
EXTT4=
EXTT5=
EXTT6=
EXTT7=
EXTT8=
EXTT9=
EXTT10=
EXTT11=
PLAYORDER=
